<?xml version="1.0" encoding="UTF-8" standalone="no"?>
<!-- Created with Inkscape (http://www.inkscape.org/) -->

<svg
   xmlns:dc="http://purl.org/dc/elements/1.1/"
   xmlns:cc="http://creativecommons.org/ns#"
   xmlns:rdf="http://www.w3.org/1999/02/22-rdf-syntax-ns#"
   xmlns:svg="http://www.w3.org/2000/svg"
   xmlns="http://www.w3.org/2000/svg"
   xmlns:sodipodi="http://sodipodi.sourceforge.net/DTD/sodipodi-0.dtd"
   xmlns:inkscape="http://www.inkscape.org/namespaces/inkscape"
   width="573.50183"
   height="523.01654"
   id="svg2"
   version="1.1"
   inkscape:version="0.48.3.1 r9886"
   sodipodi:docname="chemloeak.svg">
  <defs
     id="defs4" />
  <sodipodi:namedview
     id="base"
     pagecolor="#ffffff"
     bordercolor="#666666"
     borderopacity="1.0"
     inkscape:pageopacity="0.0"
     inkscape:pageshadow="2"
     inkscape:zoom="0.10852051"
     inkscape:cx="-1069.3676"
     inkscape:cy="137.75918"
     inkscape:document-units="px"
     inkscape:current-layer="layer1"
     showgrid="false"
     inkscape:window-width="1280"
     inkscape:window-height="758"
     inkscape:window-x="0"
     inkscape:window-y="24"
     inkscape:window-maximized="1"
     fit-margin-top="0"
     fit-margin-left="0"
     fit-margin-right="0"
     fit-margin-bottom="0" />
  <metadata
     id="metadata7">
    <rdf:RDF>
      <cc:Work
         rdf:about="">
        <dc:format>image/svg+xml</dc:format>
        <dc:type
           rdf:resource="http://purl.org/dc/dcmitype/StillImage" />
        <dc:title></dc:title>
      </cc:Work>
    </rdf:RDF>
  </metadata>
  <g
     inkscape:label="Layer 1"
     inkscape:groupmode="layer"
     id="layer1"
     transform="translate(-94.188987,-292.5601)">
    <path
       style="fill:#447821;stroke:#5aa02c;stroke-width:8;stroke-linecap:butt;stroke-linejoin:miter;stroke-miterlimit:4;stroke-opacity:1;stroke-dasharray:none"
       d="m 347.3834,805.98076 c 56.46677,26.75601 403.85689,-49.55891 295.50193,-78.6396 -157.28069,-42.21155 62.56759,-42.02946 -133.68312,-64.70157 -25.24553,-2.91652 -70.73646,3.19974 -76.10435,28.0398 -1.55787,7.20908 18.61049,11.66798 13.82227,17.27784 -14.62402,17.13344 -30.49778,-6.2959 -52.22878,-12.2272 -152.18834,33.96806 -83.44688,93.12679 -47.30795,110.25073 z"
       id="path3817"
       inkscape:connector-curvature="0"
       sodipodi:nodetypes="ssssscs" />
    <path
       transform="matrix(0.96023371,0.27919745,-0.27919745,0.96023371,-4.7995976,237.66488)"
       style="fill:#6c5353;fill-opacity:1;stroke:#483737;stroke-width:8;stroke-linejoin:miter;stroke-miterlimit:4;stroke-opacity:1;stroke-dashoffset:0"
       d="m 487.23508,360.67264 c -1.94745,28.87935 -66.01793,53.68088 -144.18378,45.77314 -79.70996,-8.06395 -139.53377,-44.13112 -137.44529,-73.00062 L 228.19041,21.256022 C 295.20787,3.4743821 448.69074,-5.1244107 510.49487,15.745569 z"
       id="path2985-3"
       inkscape:connector-curvature="0"
       sodipodi:nodetypes="sssccs" />
    <path
       sodipodi:type="arc"
       style="fill:#6c5353;fill-opacity:1;stroke:#483737;stroke-width:8;stroke-linejoin:miter;stroke-miterlimit:4;stroke-opacity:1;stroke-dasharray:none;stroke-dashoffset:0"
       id="path2985"
       sodipodi:cx="344.98087"
       sodipodi:cy="360.67264"
       sodipodi:rx="142.25421"
       sodipodi:ry="52.409451"
       d="m 487.23508,360.67264 c 0,28.94494 -63.68938,52.40945 -142.25421,52.40945 -78.56484,0 -142.25422,-23.46451 -142.25422,-52.40945 0,-28.94494 63.68938,-52.40945 142.25422,-52.40945 78.56483,0 142.25421,23.46451 142.25421,52.40945 z"
       transform="matrix(0.96023371,0.27919745,-0.27919745,0.96023371,114.41749,-81.975166)" />
    <path
       style="fill:none;stroke:#483737;stroke-width:8;stroke-linecap:butt;stroke-linejoin:miter;stroke-miterlimit:4;stroke-opacity:1;stroke-dasharray:none"
       d="m 177.38582,406.17096 c 47.76769,62.33673 182.5278,116.47574 266.07874,89.84477"
       id="path3008"
       inkscape:connector-curvature="0"
       sodipodi:nodetypes="cc" />
    <path
       style="fill:none;stroke:#483737;stroke-width:8;stroke-linecap:butt;stroke-linejoin:miter;stroke-miterlimit:4;stroke-opacity:1;stroke-dasharray:none"
       d="m 168.7469,424.57961 c 47.76769,62.33673 182.5278,116.47574 266.07874,89.84477"
       id="path3008-5"
       inkscape:connector-curvature="0"
       sodipodi:nodetypes="cc" />
    <path
       style="fill:none;stroke:#483737;stroke-width:8;stroke-linecap:butt;stroke-linejoin:miter;stroke-miterlimit:4;stroke-opacity:1;stroke-dasharray:none"
       d="m 137.35883,520.19418 c 47.76769,62.33673 182.5278,116.47574 266.07874,89.84477"
       id="path3008-1"
       inkscape:connector-curvature="0"
       sodipodi:nodetypes="cc" />
    <path
       style="fill:none;stroke:#483737;stroke-width:8;stroke-linecap:butt;stroke-linejoin:miter;stroke-miterlimit:4;stroke-opacity:1;stroke-dasharray:none"
       d="m 128.71991,538.60283 c 47.76769,62.33673 182.5278,116.47574 266.07874,89.84477"
       id="path3008-5-1"
       inkscape:connector-curvature="0"
       sodipodi:nodetypes="cc" />
    <path
       style="fill:#447821;stroke:#5aa02c;stroke-width:4;stroke-linecap:butt;stroke-linejoin:miter;stroke-miterlimit:4;stroke-opacity:1;stroke-dasharray:none"
       d="m 426.18673,423.4488 c 1.98129,12.27669 29.03369,-3.90514 36.85939,5.75928 13.30894,16.43599 -24.32141,59.90443 -3.45557,63.35208 9.83464,1.62497 3.42516,-37.61973 8.06299,-28.79641 8.78131,16.70617 -0.42843,34.20002 3.45557,50.68167 2.28978,9.7166 1.53635,27.54122 11.51856,27.64455 14.26759,0.14768 15.44179,-25.01338 17.27784,-39.16311 3.1516,-24.28819 -17.92734,-48.92849 -11.51856,-72.56693 5.8161,-21.45237 12.5516,47.7432 18.4297,35.70754 11.28716,-23.11097 -0.19707,-66.04285 -21.88527,-85.23735 -7.14187,-6.3207 -10.9718,15.94074 -18.42969,21.88527 -11.81678,9.41891 -42.72257,5.81511 -40.31496,20.73341 z"
       id="path3819"
       inkscape:connector-curvature="0"
       sodipodi:nodetypes="aaasaaasssaa" />
    <path
       style="fill:#71c837;stroke:#aade87;stroke-width:4;stroke-linecap:butt;stroke-linejoin:miter;stroke-miterlimit:4;stroke-opacity:1;stroke-dasharray:none"
       d="m 475.65936,695.61766 c -18.82423,6.82851 -19.37958,42.10817 -39.09529,45.61118 -15.31844,2.72172 -36.97238,-37.90478 -40.72426,-22.80559 -5.58436,22.47388 -77.29313,38.12849 -60.27191,53.75602 20.96037,19.24413 71.22281,-3.73854 119.86435,-17.7393 22.69267,-6.53176 115.74953,4.55117 124.38531,-15.5967 10.697,-24.95683 -43.2921,-9.35644 -47.29309,-24.21841 12.01551,-36.3687 -1.76488,-38.99488 -56.86511,-19.0072 z"
       id="path3821"
       inkscape:connector-curvature="0"
       sodipodi:nodetypes="sasssscs" />
  </g>
</svg>
