<?xml version="1.0" encoding="UTF-8" standalone="no"?>
<!-- Created with Inkscape (http://www.inkscape.org/) -->

<svg
   xmlns:dc="http://purl.org/dc/elements/1.1/"
   xmlns:cc="http://creativecommons.org/ns#"
   xmlns:rdf="http://www.w3.org/1999/02/22-rdf-syntax-ns#"
   xmlns:svg="http://www.w3.org/2000/svg"
   xmlns="http://www.w3.org/2000/svg"
   xmlns:sodipodi="http://sodipodi.sourceforge.net/DTD/sodipodi-0.dtd"
   xmlns:inkscape="http://www.inkscape.org/namespaces/inkscape"
   width="343.86951"
   height="384.65692"
   id="svg4509"
   version="1.1"
   inkscape:version="0.48.3.1 r9886"
   sodipodi:docname="fracking.svg">
  <defs
     id="defs4511" />
  <sodipodi:namedview
     id="base"
     pagecolor="#ffffff"
     bordercolor="#666666"
     borderopacity="1.0"
     inkscape:pageopacity="0.0"
     inkscape:pageshadow="2"
     inkscape:zoom="0.86816406"
     inkscape:cx="352.00208"
     inkscape:cy="115.15607"
     inkscape:document-units="px"
     inkscape:current-layer="layer1"
     showgrid="false"
     fit-margin-top="0"
     fit-margin-left="0"
     fit-margin-right="0"
     fit-margin-bottom="0"
     inkscape:window-width="1280"
     inkscape:window-height="758"
     inkscape:window-x="0"
     inkscape:window-y="24"
     inkscape:window-maximized="1" />
  <metadata
     id="metadata4514">
    <rdf:RDF>
      <cc:Work
         rdf:about="">
        <dc:format>image/svg+xml</dc:format>
        <dc:type
           rdf:resource="http://purl.org/dc/dcmitype/StillImage" />
        <dc:title></dc:title>
      </cc:Work>
    </rdf:RDF>
  </metadata>
  <g
     inkscape:label="Layer 1"
     inkscape:groupmode="layer"
     id="layer1"
     transform="translate(-128.93589,-42.791879)">
    <path
       style="fill:#c87137;stroke:#502d16;stroke-width:8;stroke-linecap:butt;stroke-linejoin:miter;stroke-miterlimit:4;stroke-opacity:1;stroke-dasharray:none"
       d="m 139.8651,243.75744 c 18.55917,-3.45233 -54.920669,-3.20653 55.95042,-6.90932 110.87109,-3.70279 146.43262,57.18195 270.68617,31.10011 l 2.3037,155.50057 -328.27895,-1.15186 z"
       id="path4618"
       inkscape:connector-curvature="0"
       sodipodi:nodetypes="czcccc" />
    <path
       style="fill:none;stroke:#000000;stroke-width:8;stroke-linecap:butt;stroke-linejoin:miter;stroke-miterlimit:4;stroke-opacity:1;stroke-dasharray:none"
       d="M 176.23397,236.84812 208.48594,47.943735 246.49719,236.84812"
       id="path5128"
       inkscape:connector-curvature="0" />
    <path
       style="fill:none;stroke:#000000;stroke-width:8;stroke-linecap:butt;stroke-linejoin:miter;stroke-miterlimit:4;stroke-opacity:1;stroke-dasharray:none"
       d="m 198.11924,103.23282 31.10011,55.28909 -50.68167,64.50394"
       id="path5130"
       inkscape:connector-curvature="0" />
    <path
       style="fill:none;stroke:#000000;stroke-width:8;stroke-linecap:butt;stroke-linejoin:miter;stroke-miterlimit:4;stroke-opacity:1;stroke-dasharray:none"
       d="m 220.0045,103.23282 -32.25197,58.74466 51.83352,54.13723"
       id="path5132"
       inkscape:connector-curvature="0" />
    <path
       style="fill:#a02c2c;stroke:#782121;stroke-width:4;stroke-linecap:butt;stroke-linejoin:miter;stroke-miterlimit:4;stroke-opacity:1;stroke-dasharray:none"
       d="m 301.78628,402.71539 6.91113,-20.73341 -10.3667,-8.06299 12.67041,-10.36671 -10.3667,-26.49268 12.67042,6.91113 -10.36671,-31.10011 6.91114,-34.55568 1.15186,33.97975 10.94263,42.04275 -10.94263,-6.91114 10.94263,23.61305 -8.06299,3.45557 14.3982,10.94263 -13.24635,18.42969 z"
       id="path5138"
       inkscape:connector-curvature="0" />
    <path
       style="fill:#a02c2c;stroke:#782121;stroke-width:4;stroke-linecap:butt;stroke-linejoin:miter;stroke-miterlimit:4;stroke-opacity:1;stroke-dasharray:none"
       d="m 373.20135,401.56353 -20.73341,-34.55568 21.88527,9.21485 -12.67042,-50.68166 13.82227,8.06299 -4.60742,-27.64455 -9.21485,1.15186 10.3667,-21.88527 -1.15185,14.97413 10.94263,-0.57593 1.15186,48.95389 -12.09449,-9.79078 12.09449,42.04274 7.48706,-26.49268 -2.87964,-13.24635 8.06299,20.73341 -12.67041,29.94826 -13.24635,-7.48707 19.00563,19.58155 z"
       id="path5140"
       inkscape:connector-curvature="0" />
    <path
       style="fill:#a02c2c;stroke:#782121;stroke-width:4;stroke-linecap:butt;stroke-linejoin:miter;stroke-miterlimit:4;stroke-opacity:1;stroke-dasharray:none"
       d="m 435.40157,403.86724 -13.82227,-23.03712 27.64455,-20.7334 -25.34084,-41.46682 12.09449,39.1631 -21.30933,-10.3667 2.87964,-15.55006 -13.24635,-19.00562 8.06299,19.58155 -4.03149,19.00563 17.85377,12.67041 -23.03712,19.00563 17.27784,21.30933 z"
       id="path5142"
       inkscape:connector-curvature="0" />
    <path
       style="fill:#a02c2c;stroke:#782121;stroke-width:4;stroke-linecap:butt;stroke-linejoin:miter;stroke-miterlimit:4;stroke-opacity:1;stroke-dasharray:none"
       d="m 248.8009,402.71539 -16.12599,-49.52981 31.10012,-21.88526 -19.58156,-26.49269 13.82228,-4.60743 -2.87964,7.48707 6.3352,9.21484 12.67042,-23.61304 -8.63892,-12.09449 17.85377,15.55005 -16.12599,28.22048 6.33521,9.21485 -25.91676,23.61304 4.60743,25.34084 10.3667,-27.64455 -3.45557,19.00563 15.55006,-13.82228 -5.75928,-12.09448 13.82227,14.97412 -22.46119,16.12599 -5.18335,13.24634 6.3352,12.67042 -11.51856,-5.18335 z"
       id="path5144"
       inkscape:connector-curvature="0" />
    <path
       style="fill:none;stroke:#000000;stroke-width:8;stroke-linecap:butt;stroke-linejoin:miter;stroke-miterlimit:4;stroke-opacity:1;stroke-dasharray:none"
       d="m 207.33408,46.791879 1.15186,357.075361 252.25646,1e-5"
       id="path5134"
       inkscape:connector-curvature="0"
       sodipodi:nodetypes="ccc" />
  </g>
</svg>
