<?xml version="1.0" encoding="UTF-8" standalone="no"?>
<!-- Created with Inkscape (http://www.inkscape.org/) -->

<svg
   xmlns:dc="http://purl.org/dc/elements/1.1/"
   xmlns:cc="http://creativecommons.org/ns#"
   xmlns:rdf="http://www.w3.org/1999/02/22-rdf-syntax-ns#"
   xmlns:svg="http://www.w3.org/2000/svg"
   xmlns="http://www.w3.org/2000/svg"
   xmlns:sodipodi="http://sodipodi.sourceforge.net/DTD/sodipodi-0.dtd"
   xmlns:inkscape="http://www.inkscape.org/namespaces/inkscape"
   width="724.00922"
   height="794.4259"
   id="svg3861"
   version="1.1"
   inkscape:version="0.48.3.1 r9886"
   sodipodi:docname="permit.svg">
  <defs
     id="defs3863" />
  <sodipodi:namedview
     id="base"
     pagecolor="#ffffff"
     bordercolor="#666666"
     borderopacity="1.0"
     inkscape:pageopacity="0.0"
     inkscape:pageshadow="2"
     inkscape:zoom="0.6138847"
     inkscape:cx="388.40304"
     inkscape:cy="438.22715"
     inkscape:document-units="px"
     inkscape:current-layer="layer1"
     showgrid="false"
     inkscape:snap-global="false"
     inkscape:window-width="1280"
     inkscape:window-height="758"
     inkscape:window-x="0"
     inkscape:window-y="24"
     inkscape:window-maximized="1"
     fit-margin-top="0"
     fit-margin-left="0"
     fit-margin-right="0"
     fit-margin-bottom="0" />
  <metadata
     id="metadata3866">
    <rdf:RDF>
      <cc:Work
         rdf:about="">
        <dc:format>image/svg+xml</dc:format>
        <dc:type
           rdf:resource="http://purl.org/dc/dcmitype/StillImage" />
        <dc:title></dc:title>
      </cc:Work>
    </rdf:RDF>
  </metadata>
  <g
     inkscape:label="Layer 1"
     inkscape:groupmode="layer"
     id="layer1"
     transform="translate(67.724428,-137.19964)">
    <path
       style="fill:#e9afaf;stroke:#0000ff;stroke-width:1px;stroke-linecap:butt;stroke-linejoin:miter;stroke-opacity:1"
       d="m 149.22055,450.74305 c -0.41795,-8.68384 63.86691,-55.69467 29.59597,-66.17697 -13.4863,-4.125 -27.45323,3.83554 -23.04202,-5.62358 11.63976,-24.95952 24.29368,-16.60034 31.65888,-46.11237 7.12811,-28.562 -26.12308,-46.42405 -15.99084,-79.57873 3.21092,-10.50676 22.69757,1.13132 27.70899,-12.87577 13.24991,-37.03397 45.58486,-74.93629 64.32288,-82.01543 25.48397,-9.62772 -67.08849,-9.16113 -95.27083,-13.75152 0,0 -42.0627,2.3905 -67.4375,40.8438 -88.4023,133.9658 -41.062501,487.6875 -41.062501,487.6875 l 0.094,0.094 c -15.1197,-6.1533 -29.7132,-12.6407 -43.656299,-19.5 0,10e-5 -64.752401,29.5096 -73.718701,59.875 -9.1465,30.9754 6.6743,69.7517 29.9374,92.1563 103.528,99.7066 431.731351,121.362 431.731351,121.362 16.9187,3.5806 42.73153,-44.56578 58.9876,-75.2998 77.98181,-147.43383 -8.47628,-364.86594 41.46724,-514.37262 28.49981,10.67988 77.27128,34.48686 82.90776,32.90352 31.2918,1.7332 56.5226,-40.8784 60.4688,-71.9687 2.9822,-23.4966 -0.4754,-54.6856 -30.6563,-64.125 l -0.094,0.094 c -65.09649,-22.9844 -133.29501,-38.34052 -205.83124,-51.26312 -4.19316,-0.74703 -67.26322,44.19799 -114.96048,68.58093 -14.55658,7.44136 24.01126,33.39179 13.2586,45.59482 -23.1698,26.29502 -41.57122,36.44331 -59.8986,61.2459 -6.95146,9.40748 30.081,-8.89889 23.22896,0.30517 -46.62385,62.62792 -88.7236,114.15318 -96.05662,122.87111 z"
       id="path3869-4"
       inkscape:connector-curvature="0"
       sodipodi:nodetypes="csssssscscccsscsccsccssssscc" />
    <path
       style="fill:none;stroke:#000000;stroke-width:15;stroke-linecap:butt;stroke-linejoin:miter;stroke-miterlimit:4;stroke-opacity:1;stroke-dasharray:none"
       d="m 387.16337,923.63379 c 0,0 -311.279996,-18.06211 -414.807914,-117.7688 -23.26317,-22.40453 -39.094791,-61.17303 -29.948257,-92.14848 C -48.626422,683.35117 16.125984,653.82 16.125984,653.82 126.81638,708.27386 277.87822,738.50484 416.97188,775.91674 c 0,0 -58.30044,32.98212 -64.50394,62.20022 -6.36739,29.99001 4.60788,78.67426 34.55568,85.23735 33.96234,7.44288 59.76644,-40.68109 76.0225,-71.41507 94.50296,-178.66889 -52.47598,-460.16493 94.45219,-598.96513 28.34584,-26.77777 59.89652,-18.4297 59.89652,-18.4297 -64.47703,-22.78799 -131.99739,-38.08516 -203.76143,-50.93986 -7.33014,-1.31301 -41.22238,23.34497 -80.67001,51.6986 l -35.54946,16.72735 17.27784,47.22609 -73.71879,70.26322 40.31496,-23.03712 -107.12261,145.13386 -28.7964,-40.31496 35.70754,-66.80765 -31.10011,2.30371 38.01125,-52.98538 -25.34084,-74.87064 37.06148,-17.61866 c 15.4851,-64.27125 83.51628,-78.76153 68.05687,-81.10915 -32.30305,-4.90545 -65.47245,-9.95638 -99.59414,-15.51418 0,0 -42.04086,2.40804 -67.41564,40.86128 C 12.353103,319.52669 59.692892,673.22889 59.692892,673.22889"
       id="path3869"
       inkscape:connector-curvature="0"
       sodipodi:nodetypes="caaccaaascsccccccccccccscsc" />
    <path
       style="fill:none;stroke:#000000;stroke-width:15;stroke-linecap:butt;stroke-linejoin:miter;stroke-miterlimit:4;stroke-opacity:1;stroke-dasharray:none"
       d="m 617.25808,234.37273 c 30.18086,9.43938 33.6432,40.60308 30.66093,64.09969 -3.9461,31.09033 -29.18065,73.7241 -60.47244,71.991 -24.88032,-1.378 -44.57326,-37.47615 -41.46682,-62.20022 2.57583,-20.501 25.44691,-42.66638 46.07424,-41.46682 17.77216,1.03352 22.72506,26.83359 11.51856,39.1631 -21.72661,23.90387 -42.10456,-6.99323 -39.1631,-11.51856"
       id="path3871"
       inkscape:connector-curvature="0"
       sodipodi:nodetypes="csaassc" />
    <path
       style="fill:none;stroke:#000000;stroke-width:15;stroke-linecap:butt;stroke-linejoin:miter;stroke-miterlimit:4;stroke-opacity:1;stroke-dasharray:none"
       d="M 582.76416,369.61996 505.18445,337.65142"
       id="path3877"
       inkscape:connector-curvature="0" />
    <path
       style="fill:none;stroke:#000000;stroke-width:15;stroke-linecap:butt;stroke-linejoin:miter;stroke-miterlimit:4;stroke-opacity:1;stroke-dasharray:none"
       d="m 564.23462,294.07646 -10.5883,-4.47967"
       id="path3879"
       inkscape:connector-curvature="0" />
    <path
       style="fill:none;stroke:#000000;stroke-width:15;stroke-linecap:butt;stroke-linejoin:miter;stroke-miterlimit:4;stroke-opacity:1;stroke-dasharray:none"
       d="M 583.57865,315.04945 547.33406,302.01769"
       id="path3881"
       inkscape:connector-curvature="0" />
    <path
       style="fill:none;stroke:#000000;stroke-width:15;stroke-linecap:butt;stroke-linejoin:miter;stroke-miterlimit:4;stroke-opacity:1;stroke-dasharray:none"
       d="m 593.55609,266.58758 -38.48442,-10.5883"
       id="path3883"
       inkscape:connector-curvature="0" />
    <text
       xml:space="preserve"
       style="font-size:100px;font-style:italic;font-variant:normal;font-weight:bold;font-stretch:normal;line-height:125%;letter-spacing:0px;word-spacing:0px;fill:#000000;fill-opacity:1;stroke:none;font-family:URW Chancery L;-inkscape-font-specification:Andale Mono Italic"
       x="138.70821"
       y="269.11642"
       id="text4445"
       sodipodi:linespacing="125%"
       transform="matrix(0.98794928,0.15477797,-0.15477797,0.98794928,0,0)"><tspan
         sodipodi:role="line"
         id="tspan4447"
         x="138.70821"
         y="269.11642">P       ermit</tspan><tspan
         sodipodi:role="line"
         x="138.70821"
         y="394.11642"
         id="tspan4455">to    drill</tspan><tspan
         sodipodi:role="line"
         x="138.70821"
         y="519.11646"
         id="tspan4457"> for oil</tspan></text>
  </g>
</svg>
